<svg width="15" height="21" viewBox="0 0 15 21" fill="none" xmlns="http://www.w3.org/2000/svg">
<path d="M7.37188 9.85564C6.68842 9.85564 6.03294 9.58413 5.54966 9.10085C5.06638 8.61756 4.79487 7.96209 4.79487 7.27862C4.79487 6.59516 5.06638 5.93968 5.54966 5.4564C6.03294 4.97312 6.68842 4.70161 7.37188 4.70161C8.05535 4.70161 8.71082 4.97312 9.19411 5.4564C9.67739 5.93968 9.9489 6.59516 9.9489 7.27862C9.9489 7.61704 9.88224 7.95215 9.75273 8.2648C9.62323 8.57746 9.4334 8.86155 9.19411 9.10085C8.95481 9.34015 8.67072 9.52997 8.35806 9.65947C8.04541 9.78898 7.7103 9.85564 7.37188 9.85564ZM7.37188 0.0629883C5.45818 0.0629883 3.62285 0.823205 2.26966 2.1764C0.916466 3.52959 0.15625 5.36492 0.15625 7.27862C0.15625 12.6904 7.37188 20.6791 7.37188 20.6791C7.37188 20.6791 14.5875 12.6904 14.5875 7.27862C14.5875 5.36492 13.8273 3.52959 12.4741 2.1764C11.1209 0.823205 9.28559 0.0629883 7.37188 0.0629883Z" fill="white"/>
</svg>
