<svg width="12" height="20" viewBox="0 0 12 20" fill="none" xmlns="http://www.w3.org/2000/svg">
<path d="M11.168 14.5C11.168 15.9587 10.5885 17.3576 9.55706 18.3891C8.52561 19.4205 7.12666 20 5.66797 20C4.20928 20 2.81033 19.4205 1.77888 18.3891C0.747431 17.3576 0.167969 15.9587 0.167969 14.5L0.167969 4C0.167969 2.93913 0.589396 1.92172 1.33954 1.17157C2.08969 0.421429 3.1071 0 4.16797 0C5.22883 0 6.24625 0.421429 6.9964 1.17157C7.74654 1.92172 8.16797 2.93913 8.16797 4L8.16797 12.5C8.16797 13.163 7.90458 13.7989 7.43574 14.2678C6.96689 14.7366 6.33101 15 5.66797 15C5.00493 15 4.36904 14.7366 3.9002 14.2678C3.43136 13.7989 3.16797 13.163 3.16797 12.5L3.16797 5H4.66797V12.5C4.66797 12.7652 4.77333 13.0196 4.96086 13.2071C5.1484 13.3946 5.40275 13.5 5.66797 13.5C5.93319 13.5 6.18754 13.3946 6.37508 13.2071C6.56261 13.0196 6.66797 12.7652 6.66797 12.5V4C6.66797 3.6717 6.6033 3.34661 6.47767 3.04329C6.35203 2.73998 6.16788 2.46438 5.93574 2.23223C5.70359 2.00009 5.42799 1.81594 5.12468 1.6903C4.82136 1.56466 4.49627 1.5 4.16797 1.5C3.83966 1.5 3.51457 1.56466 3.21126 1.6903C2.90795 1.81594 2.63235 2.00009 2.4002 2.23223C2.16806 2.46438 1.98391 2.73998 1.85827 3.04329C1.73263 3.34661 1.66797 3.6717 1.66797 4L1.66797 14.5C1.66797 15.5609 2.0894 16.5783 2.83954 17.3284C3.58969 18.0786 4.6071 18.5 5.66797 18.5C6.72883 18.5 7.74625 18.0786 8.4964 17.3284C9.24654 16.5783 9.66797 15.5609 9.66797 14.5L9.66797 5H11.168L11.168 14.5Z" fill="white"/>
</svg>
