<svg width="35" height="25" viewBox="0 0 35 25" fill="none" xmlns="http://www.w3.org/2000/svg">
<path d="M14.0265 17.5346L22.7296 12.5039L14.0265 7.47322V17.5346ZM33.4115 4.40449C33.6295 5.19264 33.7804 6.24908 33.881 7.5906C33.9984 8.93212 34.0487 10.0892 34.0487 11.0953L34.1493 12.5039C34.1493 16.1763 33.881 18.8761 33.4115 20.6033C32.9922 22.1125 32.0196 23.0851 30.5104 23.5044C29.7223 23.7224 28.2802 23.8733 26.0666 23.9739C23.8867 24.0913 21.8912 24.1416 20.0466 24.1416L17.3803 24.2422C10.3541 24.2422 5.9774 23.9739 4.2502 23.5044C2.74099 23.0851 1.76839 22.1125 1.34916 20.6033C1.13117 19.8152 0.980246 18.7587 0.879632 17.4172C0.762249 16.0757 0.711942 14.9186 0.711942 13.9125L0.611328 12.5039C0.611328 8.83151 0.879632 6.1317 1.34916 4.40449C1.76839 2.89529 2.74099 1.92268 4.2502 1.50346C5.03834 1.28546 6.48047 1.13454 8.69398 1.03393C10.8739 0.916546 12.8695 0.866239 14.714 0.866239L17.3803 0.765625C24.4065 0.765625 28.7832 1.03393 30.5104 1.50346C32.0196 1.92268 32.9922 2.89529 33.4115 4.40449Z" fill="white"/>
</svg>
