<svg width="30" height="31" viewBox="0 0 30 31" fill="none" xmlns="http://www.w3.org/2000/svg">
<path d="M25.864 0.952148C26.7216 0.952148 27.5441 1.29284 28.1506 1.89929C28.757 2.50573 29.0977 3.32824 29.0977 4.18588V26.822C29.0977 27.6796 28.757 28.5022 28.1506 29.1086C27.5441 29.715 26.7216 30.0557 25.864 30.0557H3.22787C2.37023 30.0557 1.54772 29.715 0.941279 29.1086C0.334836 28.5022 -0.00585937 27.6796 -0.00585938 26.822V4.18588C-0.00585938 3.32824 0.334836 2.50573 0.941279 1.89929C1.54772 1.29284 2.37023 0.952148 3.22787 0.952148H25.864ZM25.0556 26.0136V17.4442C25.0556 16.0462 24.5002 14.7055 23.5117 13.717C22.5232 12.7285 21.1825 12.1732 19.7846 12.1732C18.4102 12.1732 16.8095 13.014 16.0334 14.2751V12.4804H11.5224V26.0136H16.0334V18.0424C16.0334 16.7974 17.0359 15.7788 18.2809 15.7788C18.8812 15.7788 19.457 16.0173 19.8815 16.4418C20.306 16.8663 20.5445 17.4421 20.5445 18.0424V26.0136H25.0556ZM6.26758 9.94192C6.988 9.94192 7.67891 9.65574 8.18832 9.14633C8.69773 8.63692 8.98392 7.946 8.98392 7.22559C8.98392 5.7219 7.77127 4.49308 6.26758 4.49308C5.54287 4.49308 4.84785 4.78097 4.33541 5.29342C3.82296 5.80586 3.53508 6.50088 3.53508 7.22559C3.53508 8.72927 4.76389 9.94192 6.26758 9.94192ZM8.51502 26.0136V12.4804H4.0363V26.0136H8.51502Z" fill="white"/>
</svg>
