<svg width="33" height="33" viewBox="0 0 33 33" fill="none" xmlns="http://www.w3.org/2000/svg">
<path d="M17.9788 0.514648C19.7775 0.519445 20.6904 0.529038 21.4786 0.551422L21.7888 0.562614C22.147 0.575405 22.5003 0.591393 22.9272 0.610579C24.6284 0.690522 25.7891 0.95913 26.8076 1.35405C27.8629 1.76015 28.7518 2.31016 29.6408 3.19752C30.4541 3.99652 31.0832 4.96341 31.4843 6.03069C31.8792 7.04916 32.1478 8.20992 32.2277 9.9127C32.2469 10.338 32.2629 10.6913 32.2757 11.0511L32.2853 11.3613C32.3093 12.1479 32.3189 13.0608 32.3221 14.8596L32.3237 16.0523V18.1468C32.3275 19.313 32.3153 20.4792 32.2869 21.6451L32.2773 21.9553C32.2645 22.315 32.2485 22.6683 32.2293 23.0936C32.1494 24.7964 31.8776 25.9556 31.4843 26.9757C31.0832 28.0429 30.4541 29.0098 29.6408 29.8088C28.8418 30.6221 27.8749 31.2513 26.8076 31.6523C25.7891 32.0472 24.6284 32.3158 22.9272 32.3958L21.7888 32.4437L21.4786 32.4533C20.6904 32.4757 19.7775 32.4869 17.9788 32.4901L16.786 32.4917H14.6931C13.5264 32.4958 12.3596 32.4836 11.1932 32.4549L10.883 32.4453C10.5035 32.431 10.124 32.4144 9.74466 32.3958C8.04349 32.3158 6.88272 32.0472 5.86265 31.6523C4.79595 31.2511 3.82962 30.622 3.03108 29.8088C2.21718 29.01 1.5875 28.0431 1.18601 26.9757C0.791094 25.9572 0.522486 24.7964 0.442544 23.0936L0.394578 21.9553L0.386584 21.6451C0.357111 20.4792 0.343786 19.313 0.346613 18.1468V14.8596C0.342187 13.6933 0.353913 12.5271 0.381787 11.3613L0.392979 11.0511C0.40577 10.6913 0.421759 10.338 0.440945 9.9127C0.520887 8.20992 0.789494 7.05076 1.18441 6.03069C1.58683 4.96297 2.21763 3.99605 3.03268 3.19752C3.83076 2.38458 4.79652 1.75548 5.86265 1.35405C6.88272 0.95913 8.04189 0.690522 9.74466 0.610579C10.17 0.591393 10.5249 0.575405 10.883 0.562614L11.1932 0.553021C12.3591 0.524614 13.5253 0.512355 14.6915 0.516247L17.9788 0.514648ZM16.3351 8.50891C14.2149 8.50891 12.1816 9.35116 10.6823 10.8504C9.18312 12.3496 8.34087 14.383 8.34087 16.5032C8.34087 18.6234 9.18312 20.6568 10.6823 22.156C12.1816 23.6552 14.2149 24.4974 16.3351 24.4974C18.4553 24.4974 20.4887 23.6552 21.9879 22.156C23.4871 20.6568 24.3294 18.6234 24.3294 16.5032C24.3294 14.383 23.4871 12.3496 21.9879 10.8504C20.4887 9.35116 18.4553 8.50891 16.3351 8.50891ZM16.3351 11.7066C16.965 11.7065 17.5888 11.8305 18.1708 12.0714C18.7527 12.3124 19.2816 12.6656 19.727 13.1109C20.1725 13.5563 20.5259 14.085 20.7671 14.6669C21.0082 15.2488 21.1324 15.8725 21.1325 16.5024C21.1326 17.1323 21.0086 17.756 20.7677 18.338C20.5267 18.92 20.1735 19.4488 19.7282 19.8943C19.2828 20.3398 18.7541 20.6932 18.1722 20.9343C17.5903 21.1755 16.9666 21.2996 16.3367 21.2997C15.0646 21.2997 13.8446 20.7944 12.9451 19.8949C12.0455 18.9953 11.5402 17.7753 11.5402 16.5032C11.5402 15.231 12.0455 14.011 12.9451 13.1115C13.8446 12.212 15.0646 11.7066 16.3367 11.7066M24.7307 6.11063C24.2007 6.11063 23.6923 6.32119 23.3175 6.696C22.9427 7.0708 22.7321 7.57914 22.7321 8.1092C22.7321 8.63925 22.9427 9.14759 23.3175 9.5224C23.6923 9.8972 24.2007 10.1078 24.7307 10.1078C25.2608 10.1078 25.7691 9.8972 26.1439 9.5224C26.5187 9.14759 26.7293 8.63925 26.7293 8.1092C26.7293 7.57914 26.5187 7.0708 26.1439 6.696C25.7691 6.32119 25.2608 6.11063 24.7307 6.11063Z" fill="white"/>
</svg>
